<svg width="24" height="24" viewBox="0 0 24 24" fill="none" stroke="currentColor" stroke-width="1.5" stroke-linecap="round" stroke-linejoin="round" xmlns="http://www.w3.org/2000/svg">
  <path d="M6 4.5a2.5 2.5 0 0 0-3 3" />
  
  <path d="M18 4.5a2.5 2.5 0 0 1 3 3" />
  
  <path d="M4 11c0-4.418 3.582-8 8-8s8 3.582 8 8" />
  
  <rect x="7" y="3" width="4" height="3" rx="1" />
  <rect x="13" y="3" width="4" height="3" rx="1" />
  <path d="M11 4.5h2" />
  
  <path d="M4 11v6a2 2 0 0 0 2 2" />
  <path d="M20 11v6a2 2 0 0 1-2 2" />
  
  <path d="M9 12v1" />
  <path d="M15 12v1" />
  
  <path d="M12 16.5c-1.2 0-1.8-.8-1.8-.8" />
  <path d="M12 16.5c1.2 0 1.8-.8 1.8-.8" />
  <path d="M11.5 14.5h1l-.5 1z" fill="currentColor" /> 
  
  <path d="M5 14h2" />
  <path d="M19 14h-2" />
</svg>
